<mxfile host="65bd71144e">
    <diagram id="UcV7zBs-6g5sqdMf0W3B" name="Page-1">
        <mxGraphModel dx="761" dy="523" grid="1" gridSize="10" guides="1" tooltips="1" connect="1" arrows="1" fold="1" page="1" pageScale="1" pageWidth="850" pageHeight="1100" math="0" shadow="0">
            <root>
                <mxCell id="0"/>
                <mxCell id="1" parent="0"/>
                <mxCell id="4" style="edgeStyle=none;html=1;entryX=0.033;entryY=0.671;entryDx=0;entryDy=0;entryPerimeter=0;" parent="1" target="29" edge="1">
                    <mxGeometry relative="1" as="geometry">
                        <mxPoint x="190" y="220" as="sourcePoint"/>
                        <mxPoint x="260" y="140" as="targetPoint"/>
                    </mxGeometry>
                </mxCell>
                <mxCell id="6" value="rising=1" style="edgeLabel;html=1;align=center;verticalAlign=middle;resizable=0;points=[];fontSize=18;" parent="4" vertex="1" connectable="0">
                    <mxGeometry x="-0.3433" y="-3" relative="1" as="geometry">
                        <mxPoint x="4" y="-17" as="offset"/>
                    </mxGeometry>
                </mxCell>
                <mxCell id="2" value="&lt;font style=&quot;font-size: 18px&quot;&gt;A&lt;br&gt;z = 0&lt;/font&gt;" style="ellipse;whiteSpace=wrap;html=1;aspect=fixed;" parent="1" vertex="1">
                    <mxGeometry x="120" y="190" width="80" height="80" as="geometry"/>
                </mxCell>
                <mxCell id="11" value="" style="endArrow=classic;html=1;fontSize=18;entryX=0;entryY=0;entryDx=0;entryDy=0;" parent="1" edge="1" target="2">
                    <mxGeometry width="50" height="50" relative="1" as="geometry">
                        <mxPoint x="110" y="110" as="sourcePoint"/>
                        <mxPoint x="150" y="190" as="targetPoint"/>
                    </mxGeometry>
                </mxCell>
                <mxCell id="13" value="cont = 0" style="edgeLabel;html=1;align=center;verticalAlign=middle;resizable=0;points=[];fontSize=18;" parent="11" vertex="1" connectable="0">
                    <mxGeometry x="-0.204" y="-1" relative="1" as="geometry">
                        <mxPoint x="1" as="offset"/>
                    </mxGeometry>
                </mxCell>
                <mxCell id="12" value="reset" style="edgeLabel;html=1;align=center;verticalAlign=middle;resizable=0;points=[];fontSize=18;" parent="1" vertex="1" connectable="0">
                    <mxGeometry x="100.0014141046048" y="99.9957287525381" as="geometry">
                        <mxPoint x="8" y="-8" as="offset"/>
                    </mxGeometry>
                </mxCell>
                <mxCell id="31" style="edgeStyle=none;html=1;exitX=1;exitY=0.5;exitDx=0;exitDy=0;entryX=0;entryY=0.5;entryDx=0;entryDy=0;" edge="1" parent="1" source="29" target="30">
                    <mxGeometry relative="1" as="geometry"/>
                </mxCell>
                <mxCell id="29" value="&lt;font style=&quot;font-size: 18px&quot;&gt;B&lt;br&gt;z = 0&lt;/font&gt;" style="ellipse;whiteSpace=wrap;html=1;aspect=fixed;" vertex="1" parent="1">
                    <mxGeometry x="260" y="90" width="80" height="80" as="geometry"/>
                </mxCell>
                <mxCell id="35" style="edgeStyle=none;html=1;exitX=1;exitY=0.5;exitDx=0;exitDy=0;" edge="1" parent="1" source="30" target="34">
                    <mxGeometry relative="1" as="geometry"/>
                </mxCell>
                <mxCell id="30" value="&lt;font style=&quot;font-size: 18px&quot;&gt;C&lt;br&gt;z = 1&lt;/font&gt;" style="ellipse;whiteSpace=wrap;html=1;aspect=fixed;" vertex="1" parent="1">
                    <mxGeometry x="450" y="90" width="80" height="80" as="geometry"/>
                </mxCell>
                <mxCell id="32" value="rising=1" style="edgeLabel;html=1;align=center;verticalAlign=middle;resizable=0;points=[];fontSize=18;" vertex="1" connectable="0" parent="1">
                    <mxGeometry x="389.9964300960375" y="130.00053891152848" as="geometry">
                        <mxPoint x="1" y="-3" as="offset"/>
                    </mxGeometry>
                </mxCell>
                <mxCell id="51" style="edgeStyle=none;html=1;exitX=0.5;exitY=1;exitDx=0;exitDy=0;entryX=0.5;entryY=0;entryDx=0;entryDy=0;startArrow=none;startFill=0;endArrow=classic;endFill=1;" edge="1" parent="1" source="34" target="49">
                    <mxGeometry relative="1" as="geometry"/>
                </mxCell>
                <mxCell id="34" value="&lt;font style=&quot;font-size: 18px&quot;&gt;D&lt;br&gt;z = 1&lt;/font&gt;" style="ellipse;whiteSpace=wrap;html=1;aspect=fixed;" vertex="1" parent="1">
                    <mxGeometry x="580" y="190" width="80" height="80" as="geometry"/>
                </mxCell>
                <mxCell id="36" value="rising=1" style="edgeLabel;html=1;align=center;verticalAlign=middle;resizable=0;points=[];fontSize=18;" vertex="1" connectable="0" parent="1">
                    <mxGeometry x="559.9964300960376" y="180.00053891152848" as="geometry">
                        <mxPoint x="1" y="-3" as="offset"/>
                    </mxGeometry>
                </mxCell>
                <mxCell id="38" style="edgeStyle=none;html=1;entryX=0;entryY=0.5;entryDx=0;entryDy=0;endArrow=none;endFill=0;startArrow=classic;startFill=1;exitX=1;exitY=1;exitDx=0;exitDy=0;" edge="1" parent="1" target="45" source="40">
                    <mxGeometry relative="1" as="geometry">
                        <mxPoint x="200" y="400" as="sourcePoint"/>
                        <mxPoint x="260" y="310" as="targetPoint"/>
                    </mxGeometry>
                </mxCell>
                <mxCell id="39" value="rising=1" style="edgeLabel;html=1;align=center;verticalAlign=middle;resizable=0;points=[];fontSize=18;" vertex="1" connectable="0" parent="38">
                    <mxGeometry x="-0.3433" y="-3" relative="1" as="geometry">
                        <mxPoint x="12" y="15" as="offset"/>
                    </mxGeometry>
                </mxCell>
                <mxCell id="52" style="edgeStyle=none;html=1;exitX=0.5;exitY=0;exitDx=0;exitDy=0;entryX=0.5;entryY=1;entryDx=0;entryDy=0;startArrow=none;startFill=0;endArrow=classic;endFill=1;" edge="1" parent="1" source="40" target="2">
                    <mxGeometry relative="1" as="geometry"/>
                </mxCell>
                <mxCell id="40" value="&lt;font style=&quot;font-size: 18px&quot;&gt;H&lt;br&gt;z = 1&lt;/font&gt;" style="ellipse;whiteSpace=wrap;html=1;aspect=fixed;" vertex="1" parent="1">
                    <mxGeometry x="120" y="340" width="80" height="80" as="geometry"/>
                </mxCell>
                <mxCell id="44" style="edgeStyle=none;html=1;exitX=1;exitY=0.5;exitDx=0;exitDy=0;entryX=0;entryY=0.5;entryDx=0;entryDy=0;endArrow=none;endFill=0;startArrow=classic;startFill=1;" edge="1" parent="1" source="45" target="47">
                    <mxGeometry relative="1" as="geometry"/>
                </mxCell>
                <mxCell id="45" value="&lt;font style=&quot;font-size: 18px&quot;&gt;G&lt;br&gt;z = 1&lt;/font&gt;" style="ellipse;whiteSpace=wrap;html=1;aspect=fixed;" vertex="1" parent="1">
                    <mxGeometry x="260" y="430" width="80" height="80" as="geometry"/>
                </mxCell>
                <mxCell id="46" style="edgeStyle=none;html=1;exitX=1;exitY=0.5;exitDx=0;exitDy=0;endArrow=none;endFill=0;startArrow=classic;startFill=1;" edge="1" parent="1" source="47" target="49">
                    <mxGeometry relative="1" as="geometry"/>
                </mxCell>
                <mxCell id="47" value="&lt;font style=&quot;font-size: 18px&quot;&gt;F&lt;br&gt;z = 1&lt;/font&gt;" style="ellipse;whiteSpace=wrap;html=1;aspect=fixed;" vertex="1" parent="1">
                    <mxGeometry x="450" y="430" width="80" height="80" as="geometry"/>
                </mxCell>
                <mxCell id="48" value="rising=1" style="edgeLabel;html=1;align=center;verticalAlign=middle;resizable=0;points=[];fontSize=18;" vertex="1" connectable="0" parent="1">
                    <mxGeometry x="389.9964300960375" y="470.00053891152845" as="geometry">
                        <mxPoint x="1" y="-3" as="offset"/>
                    </mxGeometry>
                </mxCell>
                <mxCell id="49" value="&lt;font style=&quot;font-size: 18px&quot;&gt;E&lt;br&gt;z = 1&lt;/font&gt;" style="ellipse;whiteSpace=wrap;html=1;aspect=fixed;" vertex="1" parent="1">
                    <mxGeometry x="580" y="340" width="80" height="80" as="geometry"/>
                </mxCell>
                <mxCell id="50" value="rising=1" style="edgeLabel;html=1;align=center;verticalAlign=middle;resizable=0;points=[];fontSize=18;" vertex="1" connectable="0" parent="1">
                    <mxGeometry x="569.9964300960376" y="440.00053891152845" as="geometry">
                        <mxPoint x="1" y="-3" as="offset"/>
                    </mxGeometry>
                </mxCell>
                <mxCell id="53" value="rising=1" style="edgeLabel;html=1;align=center;verticalAlign=middle;resizable=0;points=[];fontSize=18;" vertex="1" connectable="0" parent="1">
                    <mxGeometry x="159.9983196953886" y="310.00027074523507" as="geometry"/>
                </mxCell>
                <mxCell id="54" value="rising=1" style="edgeLabel;html=1;align=center;verticalAlign=middle;resizable=0;points=[];fontSize=18;" vertex="1" connectable="0" parent="1">
                    <mxGeometry x="619.9983196953885" y="300.00027074523507" as="geometry"/>
                </mxCell>
            </root>
        </mxGraphModel>
    </diagram>
</mxfile>